# xmcd
#
# Track frame offsets: 
#        150
#        12361
#        38672
#        61427
#        77884
#        95984
#        109782
#        131001
#        146488
#        157467
#        173261
#
# Disc length: 2636 seconds
#
# Revision: 0
# Processed by: cddbd v1.5.2PL0 Copyright (c) Steve Scherf et al.
# Submitted via: ExactAudioCopy v0.95b4
#
DISCID=950a4a0b
DTITLE=Taj Mahal and The Hula Blues Band - Hanapepe Dream
DYEAR=2003
DGENRE=Blues
TTITLE0=Great Big Boat
TTITLE1=Balckjack Davey
TTITLE2=Moonlight Lady
TTITLE3=King Edward's Thrown
TTITLE4=African Herbman
TTITLE5=Baby You're My Destiny
TTITLE6=Stagger Lee
TTITLE7=Living' On Easy
TTITLE8=My Creole Belle
TTITLE9=All Along The Watchtower
TTITLE10=Hanapepe Dream
EXTD=
EXTT0=
EXTT1=
EXTT2=
EXTT3=
EXTT4=
EXTT5=
EXTT6=
EXTT7=
EXTT8=
EXTT9=
EXTT10=
PLAYORDER=
